<mxfile host="app.diagrams.net" agent="Mozilla/5.0 (Windows NT 10.0; Win64; x64) AppleWebKit/537.36 (KHTML, like Gecko) Chrome/135.0.0.0 Safari/537.36 Edg/135.0.0.0" version="26.2.9">
  <diagram name="第 1 页" id="-MWFYzPepKz2P6zelnVu">
    <mxGraphModel dx="1039" dy="578" grid="1" gridSize="10" guides="1" tooltips="1" connect="1" arrows="1" fold="1" page="1" pageScale="1" pageWidth="827" pageHeight="1169" math="0" shadow="0">
      <root>
        <mxCell id="0" />
        <mxCell id="1" parent="0" />
        <mxCell id="tpHpxGHbs9bFJgJ8sxmu-21" style="edgeStyle=orthogonalEdgeStyle;rounded=0;orthogonalLoop=1;jettySize=auto;html=1;exitX=0.5;exitY=1;exitDx=0;exitDy=0;entryX=0.5;entryY=0;entryDx=0;entryDy=0;align=left;" edge="1" parent="1" source="tpHpxGHbs9bFJgJ8sxmu-1" target="tpHpxGHbs9bFJgJ8sxmu-2">
          <mxGeometry relative="1" as="geometry" />
        </mxCell>
        <mxCell id="tpHpxGHbs9bFJgJ8sxmu-1" value="1" style="ellipse;whiteSpace=wrap;html=1;aspect=fixed;align=center;" vertex="1" parent="1">
          <mxGeometry x="479.5" y="10" width="30" height="30" as="geometry" />
        </mxCell>
        <mxCell id="tpHpxGHbs9bFJgJ8sxmu-25" style="edgeStyle=orthogonalEdgeStyle;rounded=0;orthogonalLoop=1;jettySize=auto;html=1;exitX=0.5;exitY=1;exitDx=0;exitDy=0;entryX=0.5;entryY=0;entryDx=0;entryDy=0;align=left;" edge="1" parent="1" source="tpHpxGHbs9bFJgJ8sxmu-2" target="tpHpxGHbs9bFJgJ8sxmu-16">
          <mxGeometry relative="1" as="geometry">
            <Array as="points">
              <mxPoint x="495" y="170" />
              <mxPoint x="795" y="170" />
            </Array>
          </mxGeometry>
        </mxCell>
        <mxCell id="tpHpxGHbs9bFJgJ8sxmu-59" style="edgeStyle=orthogonalEdgeStyle;rounded=0;orthogonalLoop=1;jettySize=auto;html=1;exitX=0.5;exitY=1;exitDx=0;exitDy=0;entryX=0.5;entryY=0;entryDx=0;entryDy=0;align=left;" edge="1" parent="1" source="tpHpxGHbs9bFJgJ8sxmu-2" target="tpHpxGHbs9bFJgJ8sxmu-3">
          <mxGeometry relative="1" as="geometry">
            <Array as="points">
              <mxPoint x="495" y="170" />
              <mxPoint x="165" y="170" />
            </Array>
          </mxGeometry>
        </mxCell>
        <mxCell id="tpHpxGHbs9bFJgJ8sxmu-90" style="edgeStyle=orthogonalEdgeStyle;rounded=0;orthogonalLoop=1;jettySize=auto;html=1;exitX=0.5;exitY=1;exitDx=0;exitDy=0;entryX=0.5;entryY=0;entryDx=0;entryDy=0;" edge="1" parent="1" source="tpHpxGHbs9bFJgJ8sxmu-2" target="tpHpxGHbs9bFJgJ8sxmu-10">
          <mxGeometry relative="1" as="geometry" />
        </mxCell>
        <mxCell id="tpHpxGHbs9bFJgJ8sxmu-2" value="2" style="ellipse;whiteSpace=wrap;html=1;aspect=fixed;align=center;" vertex="1" parent="1">
          <mxGeometry x="479.5" y="100" width="30" height="30" as="geometry" />
        </mxCell>
        <mxCell id="tpHpxGHbs9bFJgJ8sxmu-46" style="edgeStyle=orthogonalEdgeStyle;rounded=0;orthogonalLoop=1;jettySize=auto;html=1;exitX=0.5;exitY=1;exitDx=0;exitDy=0;entryX=0.5;entryY=0;entryDx=0;entryDy=0;align=left;" edge="1" parent="1" source="tpHpxGHbs9bFJgJ8sxmu-3" target="tpHpxGHbs9bFJgJ8sxmu-4">
          <mxGeometry relative="1" as="geometry" />
        </mxCell>
        <mxCell id="tpHpxGHbs9bFJgJ8sxmu-47" style="edgeStyle=orthogonalEdgeStyle;rounded=0;orthogonalLoop=1;jettySize=auto;html=1;exitX=0.5;exitY=1;exitDx=0;exitDy=0;entryX=0.5;entryY=0;entryDx=0;entryDy=0;align=left;" edge="1" parent="1" source="tpHpxGHbs9bFJgJ8sxmu-3" target="tpHpxGHbs9bFJgJ8sxmu-7">
          <mxGeometry relative="1" as="geometry" />
        </mxCell>
        <mxCell id="tpHpxGHbs9bFJgJ8sxmu-48" style="edgeStyle=orthogonalEdgeStyle;rounded=0;orthogonalLoop=1;jettySize=auto;html=1;exitX=0.5;exitY=1;exitDx=0;exitDy=0;entryX=0.5;entryY=0;entryDx=0;entryDy=0;align=left;" edge="1" parent="1" source="tpHpxGHbs9bFJgJ8sxmu-3" target="tpHpxGHbs9bFJgJ8sxmu-8">
          <mxGeometry relative="1" as="geometry" />
        </mxCell>
        <mxCell id="tpHpxGHbs9bFJgJ8sxmu-49" style="edgeStyle=orthogonalEdgeStyle;rounded=0;orthogonalLoop=1;jettySize=auto;html=1;exitX=0.5;exitY=1;exitDx=0;exitDy=0;entryX=0.5;entryY=0;entryDx=0;entryDy=0;align=left;" edge="1" parent="1" source="tpHpxGHbs9bFJgJ8sxmu-3" target="tpHpxGHbs9bFJgJ8sxmu-9">
          <mxGeometry relative="1" as="geometry" />
        </mxCell>
        <mxCell id="tpHpxGHbs9bFJgJ8sxmu-3" value="3" style="ellipse;whiteSpace=wrap;html=1;aspect=fixed;align=center;" vertex="1" parent="1">
          <mxGeometry x="150" y="210" width="30" height="30" as="geometry" />
        </mxCell>
        <mxCell id="tpHpxGHbs9bFJgJ8sxmu-4" value="4" style="ellipse;whiteSpace=wrap;html=1;aspect=fixed;align=center;" vertex="1" parent="1">
          <mxGeometry x="30" y="329" width="30" height="30" as="geometry" />
        </mxCell>
        <mxCell id="tpHpxGHbs9bFJgJ8sxmu-7" value="5" style="ellipse;whiteSpace=wrap;html=1;aspect=fixed;align=center;" vertex="1" parent="1">
          <mxGeometry x="110" y="330" width="30" height="30" as="geometry" />
        </mxCell>
        <mxCell id="tpHpxGHbs9bFJgJ8sxmu-8" value="6" style="ellipse;whiteSpace=wrap;html=1;aspect=fixed;align=center;" vertex="1" parent="1">
          <mxGeometry x="190" y="330" width="30" height="30" as="geometry" />
        </mxCell>
        <mxCell id="tpHpxGHbs9bFJgJ8sxmu-9" value="7" style="ellipse;whiteSpace=wrap;html=1;aspect=fixed;align=center;" vertex="1" parent="1">
          <mxGeometry x="250" y="329" width="30" height="30" as="geometry" />
        </mxCell>
        <mxCell id="tpHpxGHbs9bFJgJ8sxmu-83" style="edgeStyle=orthogonalEdgeStyle;rounded=0;orthogonalLoop=1;jettySize=auto;html=1;exitX=0.5;exitY=1;exitDx=0;exitDy=0;entryX=0.5;entryY=0;entryDx=0;entryDy=0;" edge="1" parent="1" source="tpHpxGHbs9bFJgJ8sxmu-10" target="tpHpxGHbs9bFJgJ8sxmu-75">
          <mxGeometry relative="1" as="geometry" />
        </mxCell>
        <mxCell id="tpHpxGHbs9bFJgJ8sxmu-84" style="edgeStyle=orthogonalEdgeStyle;rounded=0;orthogonalLoop=1;jettySize=auto;html=1;exitX=0.5;exitY=1;exitDx=0;exitDy=0;entryX=0.5;entryY=0;entryDx=0;entryDy=0;" edge="1" parent="1" source="tpHpxGHbs9bFJgJ8sxmu-10" target="tpHpxGHbs9bFJgJ8sxmu-76">
          <mxGeometry relative="1" as="geometry" />
        </mxCell>
        <mxCell id="tpHpxGHbs9bFJgJ8sxmu-85" style="edgeStyle=orthogonalEdgeStyle;rounded=0;orthogonalLoop=1;jettySize=auto;html=1;exitX=0.5;exitY=1;exitDx=0;exitDy=0;entryX=0.5;entryY=0;entryDx=0;entryDy=0;" edge="1" parent="1" source="tpHpxGHbs9bFJgJ8sxmu-10" target="tpHpxGHbs9bFJgJ8sxmu-77">
          <mxGeometry relative="1" as="geometry" />
        </mxCell>
        <mxCell id="tpHpxGHbs9bFJgJ8sxmu-86" style="edgeStyle=orthogonalEdgeStyle;rounded=0;orthogonalLoop=1;jettySize=auto;html=1;exitX=0.5;exitY=1;exitDx=0;exitDy=0;entryX=0.5;entryY=0;entryDx=0;entryDy=0;" edge="1" parent="1" source="tpHpxGHbs9bFJgJ8sxmu-10" target="tpHpxGHbs9bFJgJ8sxmu-78">
          <mxGeometry relative="1" as="geometry" />
        </mxCell>
        <mxCell id="tpHpxGHbs9bFJgJ8sxmu-10" value="8" style="ellipse;whiteSpace=wrap;html=1;aspect=fixed;align=center;" vertex="1" parent="1">
          <mxGeometry x="479.5" y="210" width="30" height="30" as="geometry" />
        </mxCell>
        <mxCell id="tpHpxGHbs9bFJgJ8sxmu-100" style="edgeStyle=orthogonalEdgeStyle;rounded=0;orthogonalLoop=1;jettySize=auto;html=1;exitX=0.5;exitY=1;exitDx=0;exitDy=0;entryX=0.5;entryY=0;entryDx=0;entryDy=0;" edge="1" parent="1" source="tpHpxGHbs9bFJgJ8sxmu-16" target="tpHpxGHbs9bFJgJ8sxmu-92">
          <mxGeometry relative="1" as="geometry" />
        </mxCell>
        <mxCell id="tpHpxGHbs9bFJgJ8sxmu-101" style="edgeStyle=orthogonalEdgeStyle;rounded=0;orthogonalLoop=1;jettySize=auto;html=1;exitX=0.5;exitY=1;exitDx=0;exitDy=0;entryX=0.5;entryY=0;entryDx=0;entryDy=0;" edge="1" parent="1" source="tpHpxGHbs9bFJgJ8sxmu-16" target="tpHpxGHbs9bFJgJ8sxmu-93">
          <mxGeometry relative="1" as="geometry" />
        </mxCell>
        <mxCell id="tpHpxGHbs9bFJgJ8sxmu-102" style="edgeStyle=orthogonalEdgeStyle;rounded=0;orthogonalLoop=1;jettySize=auto;html=1;exitX=0.5;exitY=1;exitDx=0;exitDy=0;entryX=0.5;entryY=0;entryDx=0;entryDy=0;" edge="1" parent="1" source="tpHpxGHbs9bFJgJ8sxmu-16" target="tpHpxGHbs9bFJgJ8sxmu-94">
          <mxGeometry relative="1" as="geometry" />
        </mxCell>
        <mxCell id="tpHpxGHbs9bFJgJ8sxmu-103" style="edgeStyle=orthogonalEdgeStyle;rounded=0;orthogonalLoop=1;jettySize=auto;html=1;exitX=0.5;exitY=1;exitDx=0;exitDy=0;entryX=0.5;entryY=0;entryDx=0;entryDy=0;" edge="1" parent="1" source="tpHpxGHbs9bFJgJ8sxmu-16" target="tpHpxGHbs9bFJgJ8sxmu-95">
          <mxGeometry relative="1" as="geometry" />
        </mxCell>
        <mxCell id="tpHpxGHbs9bFJgJ8sxmu-16" value="13" style="ellipse;whiteSpace=wrap;html=1;aspect=fixed;align=center;" vertex="1" parent="1">
          <mxGeometry x="780" y="210" width="30" height="30" as="geometry" />
        </mxCell>
        <mxCell id="tpHpxGHbs9bFJgJ8sxmu-58" value="&amp;lt;class2022&amp;gt;" style="text;html=1;align=left;verticalAlign=middle;whiteSpace=wrap;rounded=0;" vertex="1" parent="1">
          <mxGeometry x="494.5" y="40" width="76" height="20" as="geometry" />
        </mxCell>
        <mxCell id="tpHpxGHbs9bFJgJ8sxmu-61" value="&amp;lt;student&amp;gt;" style="text;html=1;align=left;verticalAlign=middle;whiteSpace=wrap;rounded=0;" vertex="1" parent="1">
          <mxGeometry x="494.5" y="130" width="60" height="20" as="geometry" />
        </mxCell>
        <mxCell id="tpHpxGHbs9bFJgJ8sxmu-62" value="red" style="text;html=1;align=left;verticalAlign=middle;whiteSpace=wrap;rounded=0;fontStyle=2" vertex="1" parent="1">
          <mxGeometry x="182" y="210" width="36" height="30" as="geometry" />
        </mxCell>
        <mxCell id="tpHpxGHbs9bFJgJ8sxmu-63" value="blue" style="text;html=1;align=left;verticalAlign=middle;whiteSpace=wrap;rounded=0;fontStyle=2" vertex="1" parent="1">
          <mxGeometry x="511.5" y="210" width="36" height="30" as="geometry" />
        </mxCell>
        <mxCell id="tpHpxGHbs9bFJgJ8sxmu-64" value="green" style="text;html=1;align=left;verticalAlign=middle;whiteSpace=wrap;rounded=0;fontStyle=2" vertex="1" parent="1">
          <mxGeometry x="812" y="210" width="36" height="30" as="geometry" />
        </mxCell>
        <mxCell id="tpHpxGHbs9bFJgJ8sxmu-65" value="&amp;lt;team&amp;gt;" style="text;html=1;align=left;verticalAlign=middle;whiteSpace=wrap;rounded=0;" vertex="1" parent="1">
          <mxGeometry x="266" y="150" width="60" height="20" as="geometry" />
        </mxCell>
        <mxCell id="tpHpxGHbs9bFJgJ8sxmu-66" value="&amp;lt;team&amp;gt;" style="text;html=1;align=left;verticalAlign=middle;whiteSpace=wrap;rounded=0;" vertex="1" parent="1">
          <mxGeometry x="494.5" y="178" width="60" height="20" as="geometry" />
        </mxCell>
        <mxCell id="tpHpxGHbs9bFJgJ8sxmu-67" value="&amp;lt;team&amp;gt;" style="text;html=1;align=left;verticalAlign=middle;whiteSpace=wrap;rounded=0;" vertex="1" parent="1">
          <mxGeometry x="635" y="150" width="60" height="20" as="geometry" />
        </mxCell>
        <mxCell id="tpHpxGHbs9bFJgJ8sxmu-68" value="&amp;lt;firstName&amp;gt;" style="text;html=1;align=left;verticalAlign=middle;whiteSpace=wrap;rounded=0;" vertex="1" parent="1">
          <mxGeometry x="46" y="292" width="70" height="20" as="geometry" />
        </mxCell>
        <mxCell id="tpHpxGHbs9bFJgJ8sxmu-69" value="&amp;lt;lastName&amp;gt;" style="text;html=1;align=left;verticalAlign=middle;whiteSpace=wrap;rounded=0;" vertex="1" parent="1">
          <mxGeometry x="126" y="293" width="62" height="20" as="geometry" />
        </mxCell>
        <mxCell id="tpHpxGHbs9bFJgJ8sxmu-70" value="&amp;lt;age&amp;gt;" style="text;html=1;align=left;verticalAlign=middle;whiteSpace=wrap;rounded=0;" vertex="1" parent="1">
          <mxGeometry x="210" y="292" width="30" height="20" as="geometry" />
        </mxCell>
        <mxCell id="tpHpxGHbs9bFJgJ8sxmu-72" value="&amp;lt;studentID&amp;gt;" style="text;html=1;align=left;verticalAlign=middle;whiteSpace=wrap;rounded=0;" vertex="1" parent="1">
          <mxGeometry x="266" y="291" width="62" height="20" as="geometry" />
        </mxCell>
        <mxCell id="tpHpxGHbs9bFJgJ8sxmu-75" value="9" style="ellipse;whiteSpace=wrap;html=1;aspect=fixed;align=center;" vertex="1" parent="1">
          <mxGeometry x="345.5" y="328" width="30" height="30" as="geometry" />
        </mxCell>
        <mxCell id="tpHpxGHbs9bFJgJ8sxmu-76" value="10" style="ellipse;whiteSpace=wrap;html=1;aspect=fixed;align=center;" vertex="1" parent="1">
          <mxGeometry x="425.5" y="329" width="30" height="30" as="geometry" />
        </mxCell>
        <mxCell id="tpHpxGHbs9bFJgJ8sxmu-77" value="11" style="ellipse;whiteSpace=wrap;html=1;aspect=fixed;align=center;" vertex="1" parent="1">
          <mxGeometry x="505.5" y="329" width="30" height="30" as="geometry" />
        </mxCell>
        <mxCell id="tpHpxGHbs9bFJgJ8sxmu-78" value="12" style="ellipse;whiteSpace=wrap;html=1;aspect=fixed;align=center;" vertex="1" parent="1">
          <mxGeometry x="565.5" y="328" width="30" height="30" as="geometry" />
        </mxCell>
        <mxCell id="tpHpxGHbs9bFJgJ8sxmu-79" value="&amp;lt;firstName&amp;gt;" style="text;html=1;align=left;verticalAlign=middle;whiteSpace=wrap;rounded=0;" vertex="1" parent="1">
          <mxGeometry x="361.5" y="291" width="70" height="20" as="geometry" />
        </mxCell>
        <mxCell id="tpHpxGHbs9bFJgJ8sxmu-80" value="&amp;lt;lastName&amp;gt;" style="text;html=1;align=left;verticalAlign=middle;whiteSpace=wrap;rounded=0;" vertex="1" parent="1">
          <mxGeometry x="441.5" y="292" width="62" height="20" as="geometry" />
        </mxCell>
        <mxCell id="tpHpxGHbs9bFJgJ8sxmu-81" value="&amp;lt;age&amp;gt;" style="text;html=1;align=left;verticalAlign=middle;whiteSpace=wrap;rounded=0;" vertex="1" parent="1">
          <mxGeometry x="525.5" y="291" width="30" height="20" as="geometry" />
        </mxCell>
        <mxCell id="tpHpxGHbs9bFJgJ8sxmu-82" value="&amp;lt;studentID&amp;gt;" style="text;html=1;align=left;verticalAlign=middle;whiteSpace=wrap;rounded=0;" vertex="1" parent="1">
          <mxGeometry x="581.5" y="290" width="62" height="20" as="geometry" />
        </mxCell>
        <mxCell id="tpHpxGHbs9bFJgJ8sxmu-92" value="9" style="ellipse;whiteSpace=wrap;html=1;aspect=fixed;align=center;" vertex="1" parent="1">
          <mxGeometry x="670" y="330" width="30" height="30" as="geometry" />
        </mxCell>
        <mxCell id="tpHpxGHbs9bFJgJ8sxmu-93" value="10" style="ellipse;whiteSpace=wrap;html=1;aspect=fixed;align=center;" vertex="1" parent="1">
          <mxGeometry x="750" y="331" width="30" height="30" as="geometry" />
        </mxCell>
        <mxCell id="tpHpxGHbs9bFJgJ8sxmu-94" value="11" style="ellipse;whiteSpace=wrap;html=1;aspect=fixed;align=center;" vertex="1" parent="1">
          <mxGeometry x="830" y="331" width="30" height="30" as="geometry" />
        </mxCell>
        <mxCell id="tpHpxGHbs9bFJgJ8sxmu-95" value="12" style="ellipse;whiteSpace=wrap;html=1;aspect=fixed;align=center;" vertex="1" parent="1">
          <mxGeometry x="890" y="330" width="30" height="30" as="geometry" />
        </mxCell>
        <mxCell id="tpHpxGHbs9bFJgJ8sxmu-96" value="&amp;lt;firstName&amp;gt;" style="text;html=1;align=left;verticalAlign=middle;whiteSpace=wrap;rounded=0;" vertex="1" parent="1">
          <mxGeometry x="686" y="293" width="70" height="20" as="geometry" />
        </mxCell>
        <mxCell id="tpHpxGHbs9bFJgJ8sxmu-97" value="&amp;lt;lastName&amp;gt;" style="text;html=1;align=left;verticalAlign=middle;whiteSpace=wrap;rounded=0;" vertex="1" parent="1">
          <mxGeometry x="766" y="294" width="62" height="20" as="geometry" />
        </mxCell>
        <mxCell id="tpHpxGHbs9bFJgJ8sxmu-98" value="&amp;lt;age&amp;gt;" style="text;html=1;align=left;verticalAlign=middle;whiteSpace=wrap;rounded=0;" vertex="1" parent="1">
          <mxGeometry x="850" y="293" width="30" height="20" as="geometry" />
        </mxCell>
        <mxCell id="tpHpxGHbs9bFJgJ8sxmu-99" value="&amp;lt;studentID&amp;gt;" style="text;html=1;align=left;verticalAlign=middle;whiteSpace=wrap;rounded=0;" vertex="1" parent="1">
          <mxGeometry x="906" y="292" width="62" height="20" as="geometry" />
        </mxCell>
        <mxCell id="tpHpxGHbs9bFJgJ8sxmu-104" value="Khor" style="text;html=1;align=left;verticalAlign=middle;whiteSpace=wrap;rounded=0;fontStyle=2" vertex="1" parent="1">
          <mxGeometry x="30" y="359" width="36" height="30" as="geometry" />
        </mxCell>
        <mxCell id="tpHpxGHbs9bFJgJ8sxmu-105" value="Hwee Shian" style="text;html=1;align=left;verticalAlign=middle;whiteSpace=wrap;rounded=0;fontStyle=2" vertex="1" parent="1">
          <mxGeometry x="110" y="361" width="36" height="30" as="geometry" />
        </mxCell>
        <mxCell id="tpHpxGHbs9bFJgJ8sxmu-106" value="24" style="text;html=1;align=left;verticalAlign=middle;whiteSpace=wrap;rounded=0;fontStyle=2" vertex="1" parent="1">
          <mxGeometry x="190" y="361" width="36" height="30" as="geometry" />
        </mxCell>
        <mxCell id="tpHpxGHbs9bFJgJ8sxmu-107" value="S001" style="text;html=1;align=left;verticalAlign=middle;whiteSpace=wrap;rounded=0;fontStyle=2" vertex="1" parent="1">
          <mxGeometry x="250" y="361" width="36" height="30" as="geometry" />
        </mxCell>
        <mxCell id="tpHpxGHbs9bFJgJ8sxmu-110" value="Siti" style="text;html=1;align=left;verticalAlign=middle;whiteSpace=wrap;rounded=0;fontStyle=2" vertex="1" parent="1">
          <mxGeometry x="345.5" y="359" width="36" height="30" as="geometry" />
        </mxCell>
        <mxCell id="tpHpxGHbs9bFJgJ8sxmu-111" value="Zahra" style="text;html=1;align=left;verticalAlign=middle;whiteSpace=wrap;rounded=0;fontStyle=2" vertex="1" parent="1">
          <mxGeometry x="425.5" y="359" width="36" height="30" as="geometry" />
        </mxCell>
        <mxCell id="tpHpxGHbs9bFJgJ8sxmu-112" value="22" style="text;html=1;align=left;verticalAlign=middle;whiteSpace=wrap;rounded=0;fontStyle=2" vertex="1" parent="1">
          <mxGeometry x="503.5" y="358" width="36" height="30" as="geometry" />
        </mxCell>
        <mxCell id="tpHpxGHbs9bFJgJ8sxmu-113" value="S002" style="text;html=1;align=left;verticalAlign=middle;whiteSpace=wrap;rounded=0;fontStyle=2" vertex="1" parent="1">
          <mxGeometry x="562.5" y="358" width="36" height="30" as="geometry" />
        </mxCell>
        <mxCell id="tpHpxGHbs9bFJgJ8sxmu-114" value="John" style="text;html=1;align=left;verticalAlign=middle;whiteSpace=wrap;rounded=0;fontStyle=2" vertex="1" parent="1">
          <mxGeometry x="670" y="361" width="36" height="30" as="geometry" />
        </mxCell>
        <mxCell id="tpHpxGHbs9bFJgJ8sxmu-115" value="Tan" style="text;html=1;align=left;verticalAlign=middle;whiteSpace=wrap;rounded=0;fontStyle=2" vertex="1" parent="1">
          <mxGeometry x="750" y="361" width="36" height="30" as="geometry" />
        </mxCell>
        <mxCell id="tpHpxGHbs9bFJgJ8sxmu-116" value="20" style="text;html=1;align=left;verticalAlign=middle;whiteSpace=wrap;rounded=0;fontStyle=2" vertex="1" parent="1">
          <mxGeometry x="830" y="361" width="36" height="30" as="geometry" />
        </mxCell>
        <mxCell id="tpHpxGHbs9bFJgJ8sxmu-117" value="S003" style="text;html=1;align=left;verticalAlign=middle;whiteSpace=wrap;rounded=0;fontStyle=2" vertex="1" parent="1">
          <mxGeometry x="900" y="361" width="36" height="30" as="geometry" />
        </mxCell>
      </root>
    </mxGraphModel>
  </diagram>
</mxfile>
